<?xml version="1.0" encoding="iso-8859-1"?><!-- Generator: Adobe Illustrator 16.0.0, SVG Export Plug-In . SVG Version: 6.00 Build 0) --><!DOCTYPE svg PUBLIC "-//W3C//DTD SVG 1.1//EN" "http://www.w3.org/Graphics/SVG/1.1/DTD/svg11.dtd"><svg version="1.1" id="Layer_1" xmlns="http://www.w3.org/2000/svg" xmlns:xlink="http://www.w3.org/1999/xlink" x="0px" y="0px" width="191.151px" height="132.49px" viewBox="-18.458 6.58 191.151 132.49" style="enable-background:new -18.458 6.58 191.151 132.49;" xml:space="preserve"><path style="fill:none;" d="M-18.458,6.58h191.151v132.49H-18.458V6.58z"/><path style="fill:#5D87A1;" d="M40.054,113.583h-5.175c-0.183-8.735-0.687-16.947-1.511-24.642h-0.046l-7.879,24.642h-3.94	l-7.832-24.642h-0.045c-0.581,7.388-0.947,15.602-1.099,24.642H7.81c0.304-10.993,1.068-21.299,2.289-30.919h6.414l7.465,22.719	h0.046l7.511-22.719h6.137C39.016,93.932,39.81,104.239,40.054,113.583"/><path style="fill:#5D87A1;" d="M62.497,90.771c-2.107,11.434-4.887,19.742-8.337,24.928c-2.688,3.992-5.633,5.99-8.84,5.99	c-0.855,0-1.91-0.258-3.16-0.77v-2.757c0.611,0.088,1.328,0.138,2.152,0.138c1.498,0,2.702-0.412,3.62-1.238	c1.098-1.006,1.647-2.137,1.647-3.388c0-0.858-0.428-2.612-1.282-5.268L42.618,90.77h5.084l4.076,13.19	c0.916,2.995,1.298,5.086,1.145,6.277c2.229-5.953,3.786-12.444,4.673-19.468h4.901V90.771z"/><path style="fill:#F8981D;" d="M131.382,113.583h-14.7V82.664h4.945v27.113h9.755V113.583z"/><path style="fill:#F8981D;" d="M112.834,114.33l-5.684-2.805c0.504-0.414,0.986-0.862,1.42-1.381	c2.416-2.838,3.621-7.035,3.621-12.594c0-10.229-4.014-15.346-12.045-15.346c-3.938,0-7.01,1.298-9.207,3.895	c-2.414,2.84-3.619,7.022-3.619,12.551c0,5.435,1.068,9.422,3.205,11.951c1.955,2.291,4.902,3.438,8.843,3.438	c1.47,0,2.819-0.18,4.048-0.543l7.4,4.308L112.834,114.33z M94.421,107.396c-1.252-2.014-1.878-5.248-1.878-9.707	c0-7.785,2.365-11.682,7.1-11.682c2.475,0,4.289,0.932,5.449,2.792c1.25,2.017,1.879,5.222,1.879,9.619	c0,7.849-2.367,11.774-7.099,11.774C97.396,110.193,95.582,109.264,94.421,107.396"/><path style="fill:#F8981D;" d="M85.165,105.013c0,2.622-0.962,4.773-2.884,6.458c-1.924,1.678-4.504,2.519-7.737,2.519	c-3.024,0-5.956-0.966-8.794-2.888l1.329-2.655c2.442,1.223,4.653,1.831,6.638,1.831c1.863,0,3.319-0.413,4.375-1.232	c1.055-0.822,1.684-1.975,1.684-3.433c0-1.837-1.281-3.407-3.631-4.722c-2.167-1.19-6.501-3.678-6.501-3.678	c-2.349-1.712-3.525-3.55-3.525-6.578c0-2.506,0.877-4.529,2.632-6.068c1.757-1.545,4.024-2.315,6.803-2.315	c2.87,0,5.479,0.769,7.829,2.291l-1.192,2.656c-2.01-0.854-3.994-1.281-5.951-1.281c-1.585,0-2.809,0.381-3.66,1.146	c-0.858,0.762-1.387,1.737-1.387,2.933c0,1.828,1.308,3.418,3.722,4.759c2.196,1.192,6.638,3.723,6.638,3.723	C83.962,100.188,85.165,102.009,85.165,105.013"/><path style="fill:#5D87A1;" d="M137.59,72.308c-2.99-0.076-5.305,0.225-7.248,1.047c-0.561,0.224-1.453,0.224-1.531,0.933	c0.303,0.3,0.338,0.784,0.601,1.198c0.448,0.747,1.229,1.752,1.942,2.276c0.783,0.6,1.569,1.194,2.393,1.717	c1.453,0.899,3.1,1.422,4.516,2.318c0.825,0.521,1.645,1.195,2.471,1.756c0.406,0.299,0.666,0.784,1.193,0.971V84.41	c-0.264-0.336-0.339-0.822-0.598-1.196l-1.122-1.082c-1.084-1.456-2.431-2.727-3.884-3.771c-1.196-0.824-3.812-1.944-4.297-3.322	l-0.076-0.076c0.822-0.077,1.797-0.375,2.578-0.604c1.271-0.335,2.43-0.259,3.734-0.594c0.6-0.15,1.195-0.338,1.797-0.523v-0.337	c-0.676-0.673-1.158-1.567-1.869-2.203c-1.902-1.643-3.998-3.25-6.164-4.595c-1.16-0.749-2.652-1.231-3.887-1.868	c-0.445-0.225-1.195-0.336-1.457-0.71c-0.67-0.822-1.047-1.904-1.533-2.877c-1.08-2.053-2.129-4.331-3.061-6.502	c-0.674-1.456-1.084-2.91-1.906-4.257c-3.85-6.35-8.031-10.196-14.457-13.971c-1.381-0.786-3.024-1.121-4.779-1.533l-2.803-0.148	c-0.598-0.262-1.197-0.973-1.719-1.309c-2.132-1.344-7.621-4.257-9.189-0.411c-1.01,2.431,1.494,4.821,2.354,6.054	c0.635,0.856,1.458,1.83,1.902,2.802c0.263,0.635,0.337,1.309,0.6,1.98c0.598,1.644,1.157,3.473,1.943,5.007	c0.41,0.782,0.857,1.604,1.381,2.312c0.3,0.414,0.822,0.597,0.936,1.272c-0.521,0.744-0.562,1.867-0.861,2.801	c-1.344,4.221-0.819,9.45,1.086,12.552c0.596,0.934,2.018,2.99,3.92,2.202c1.684-0.672,1.311-2.801,1.795-4.668	c0.111-0.451,0.038-0.747,0.262-1.043v0.073c0.521,1.045,1.047,2.052,1.53,3.1c1.159,1.829,3.177,3.735,4.858,5.002	c0.895,0.676,1.604,1.832,2.725,2.245V74.1h-0.074c-0.227-0.335-0.559-0.485-0.857-0.745c-0.674-0.673-1.42-1.495-1.943-2.241	c-1.566-2.093-2.952-4.41-4.182-6.801c-0.602-1.16-1.121-2.428-1.606-3.586c-0.226-0.447-0.226-1.121-0.601-1.346	c-0.562,0.821-1.381,1.532-1.791,2.538c-0.711,1.609-0.785,3.588-1.049,5.646l-0.147,0.072c-1.19-0.299-1.604-1.53-2.056-2.575	c-1.119-2.654-1.307-6.914-0.336-9.976c0.26-0.783,1.385-3.249,0.936-3.995c-0.225-0.715-0.973-1.122-1.383-1.685	c-0.482-0.708-1.01-1.604-1.346-2.39c-0.896-2.091-1.347-4.408-2.312-6.498c-0.451-0.974-1.234-1.982-1.868-2.879	c-0.712-1.008-1.495-1.718-2.058-2.913c-0.186-0.411-0.447-1.083-0.148-1.53c0.073-0.3,0.225-0.412,0.523-0.487	c0.484-0.409,1.867,0.111,2.352,0.336c1.385,0.56,2.543,1.083,3.699,1.867c0.523,0.375,1.084,1.085,1.755,1.272h0.786	c1.193,0.26,2.538,0.072,3.661,0.41c1.979,0.636,3.772,1.569,5.38,2.576c4.893,3.103,8.928,7.512,11.652,12.778	c0.447,0.858,0.637,1.644,1.045,2.539c0.787,1.832,1.76,3.7,2.541,5.493c0.785,1.755,1.533,3.547,2.654,5.005	c0.559,0.784,2.805,1.195,3.812,1.606c0.745,0.335,1.905,0.633,2.577,1.044c1.271,0.783,2.537,1.682,3.732,2.543	C135.609,70.626,137.479,71.56,137.59,72.308 M99.484,39.844c-0.633,0-1.08,0.074-1.529,0.188v0.075h0.072	c0.301,0.597,0.824,1.011,1.197,1.532c0.301,0.599,0.562,1.193,0.857,1.791l0.072-0.074c0.527-0.373,0.789-0.971,0.789-1.868	c-0.227-0.264-0.262-0.522-0.451-0.784C100.271,40.33,99.786,40.144,99.484,39.844"/><path style="fill:#F8981D;" d="M141.148,113.578h0.774v-3.788h-1.161l-0.947,2.585l-1.029-2.585h-1.118v3.788h0.731v-2.882h0.041	l1.078,2.882h0.557l1.074-2.882V113.578z M134.913,113.578h0.819v-3.146h1.072v-0.643h-3.008v0.643h1.115L134.913,113.578	L134.913,113.578z"/></svg>